<svg xmlns="http://www.w3.org/2000/svg" viewBox="0 0 48 48" fill="none" aria-hidden="true">
  <path d="M5 39h38" stroke="#1d2b22" stroke-width="2.5" stroke-linecap="round"/>
  <path d="M24 39V26" stroke="#2f7d4f" stroke-width="2.5" stroke-linecap="round"/>
  <path d="M17 32c-3-1-5-3-4-6" stroke="#4f7f62" stroke-width="2.25" stroke-linecap="round"/>
  <path d="M31 32c3-1 5-3 4-6" stroke="#4f7f62" stroke-width="2.25" stroke-linecap="round"/>
  <circle cx="24" cy="18" r="9" fill="#f97316" stroke="#1d2b22" stroke-width="2.25"/>
  <path d="M24 11v14M17 18h14M19 13l3.5 3.5M28.5 22.5 32 26M19 23l3.5-3.5M28.5 13.5 32 10" stroke="#1d2b22" stroke-width="2" stroke-linecap="round"/>
  <path d="M34 14c2 1 3 3 2 5-1 2-3 2-4 1" fill="#c2410c" stroke="#1d2b22" stroke-width="1.8" stroke-linejoin="round"/>
  <path d="M10 20c1.5-2 3.5-2.5 5-1" stroke="#c2410c" stroke-width="2" stroke-linecap="round"/>
</svg>
