<svg xmlns="http://www.w3.org/2000/svg" viewBox="0 0 48 48" fill="none" aria-hidden="true">
  <circle cx="30" cy="18" r="9" fill="#f5c842" stroke="#1d2b22" stroke-width="2.25"/>
  <path d="M30 7v3M30 26v3M19 18h3M38 18h3M21.5 10.5l2 2M36.5 23.5l2 2M21.5 25.5l2-2M36.5 12.5l2-2" stroke="#1d2b22" stroke-width="2" stroke-linecap="round"/>
  <path d="M8 22c2-6 8-10 14-10 3 0 6 1 8 3" fill="#b8c9bf"/>
  <path d="M6 20c3-7 11-12 20-12 5 0 9 2 12 5 2 2 3 5 3 8 0 4-2 7-5 9H8c-1-3-2-6-2-10z" fill="#8fa898" stroke="#1d2b22" stroke-width="2.25" stroke-linejoin="round"/>
  <path d="M5 39h38" stroke="#1d2b22" stroke-width="2.5" stroke-linecap="round"/>
  <path d="M16 39V32" stroke="#2f7d4f" stroke-width="2.25" stroke-linecap="round"/>
  <path d="M24 39V30" stroke="#2f7d4f" stroke-width="2.25" stroke-linecap="round"/>
  <path d="M32 39V33" stroke="#2f7d4f" stroke-width="2.25" stroke-linecap="round"/>
  <circle cx="16" cy="29" r="3" fill="#4f7f62"/>
  <circle cx="24" cy="27" r="3.5" fill="#4f7f62"/>
  <circle cx="32" cy="30" r="2.8" fill="#4f7f62"/>
</svg>
