<svg xmlns="http://www.w3.org/2000/svg" viewBox="0 0 48 48" fill="none" aria-hidden="true">
  <path d="M5 39h38" stroke="#1d2b22" stroke-width="2.5" stroke-linecap="round"/>
  <path d="M20 39V33" stroke="#1d2b22" stroke-width="2.25" stroke-linecap="round"/>
  <path d="M26 39V33" stroke="#1d2b22" stroke-width="2.25" stroke-linecap="round"/>
  <path d="M32 39V34" stroke="#1d2b22" stroke-width="2.25" stroke-linecap="round"/>
  <path d="M20 33c0-3 1.5-5 3-5s3 2 3 5" stroke="#2f7d4f" stroke-width="2.25" stroke-linecap="round"/>
  <path d="M26 33c0-2.5 1.2-4.5 2.5-4.5s2.5 2 2.5 4.5" stroke="#2f7d4f" stroke-width="2.25" stroke-linecap="round"/>
  <path d="M32 34c0-2 1-3.5 2-3.5s2 1.5 2 3.5" stroke="#2f7d4f" stroke-width="2.25" stroke-linecap="round"/>
  <rect x="8" y="24" width="5" height="15" rx="1.5" fill="#2f7d4f"/>
  <circle cx="10.5" cy="17" r="10" fill="#4f7f62"/>
  <path d="M18 39h27" fill="#dfe9db"/>
  <path d="M18 28 42 39H18V28z" fill="#c8d9c3" opacity=".85"/>
</svg>
