<svg xmlns="http://www.w3.org/2000/svg" viewBox="0 0 48 48" fill="none" aria-hidden="true">
  <path d="M11 33h26" stroke="#3a443f" stroke-width="1.5" stroke-linecap="round"/>
  <rect x="12" y="14" width="24" height="19" rx="1" stroke="#3a443f" stroke-width="1.5"/>
  <path d="M24 14v19" stroke="#3a443f" stroke-width="1.5"/>
  <path d="M12 26h24" stroke="#3a443f" stroke-width="1.5"/>
  <path d="M30 19a2.5 2.5 0 1 0 0 5 3 3 0 0 1 0-5z" stroke="#3a443f" stroke-width="1.3"/>
  <circle cx="16.5" cy="18" r=".7" fill="#3a443f"/>
  <circle cx="19" cy="22.5" r=".5" fill="#3a443f"/>
  <path d="M15 33v-3" stroke="#3a443f" stroke-width="1.5" stroke-linecap="round"/>
  <path d="M21 33v-3" stroke="#3a443f" stroke-width="1.5" stroke-linecap="round"/>
  <path d="M18 30V27" stroke="#4f7f62" stroke-width="1.2" stroke-linecap="round"/>
  <path d="M18 27c-2-1.5-2.8-3-2-4.2" stroke="#4f7f62" stroke-width="1.2" stroke-linecap="round"/>
  <path d="M18 27c2-1.5 2.8-3 2-4.2" stroke="#4f7f62" stroke-width="1.2" stroke-linecap="round"/>
</svg>
