<svg xmlns="http://www.w3.org/2000/svg" viewBox="0 0 48 48" fill="none" aria-hidden="true">
  <path d="M16 36h16l-2-5H18l-2 5z" stroke="#3a443f" stroke-width="1.5" stroke-linejoin="round"/>
  <path d="M15 36h18" stroke="#3a443f" stroke-width="1.5" stroke-linecap="round"/>
  <path d="M24 31V17" stroke="#4f7f62" stroke-width="1.3" stroke-linecap="round"/>
  <path d="M24 17c-5.5-3.5-7.5-9-4.5-12.5" stroke="#4f7f62" stroke-width="1.3" stroke-linecap="round"/>
  <path d="M24 19c5.5-2.5 8.5-7 6.5-11" stroke="#4f7f62" stroke-width="1.3" stroke-linecap="round"/>
  <path d="M24 23c-6.5-2-9-6.5-7-10" stroke="#4f7f62" stroke-width="1.3" stroke-linecap="round"/>
  <path d="M24 21c6.5-1 10-5.5 8-9.5" stroke="#4f7f62" stroke-width="1.3" stroke-linecap="round"/>
  <path d="M24 27c-5-1.2-7-4-6-7" stroke="#4f7f62" stroke-width="1.2" stroke-linecap="round"/>
  <path d="M24 26.5c5 .5 8-2.5 7-5.5" stroke="#4f7f62" stroke-width="1.2" stroke-linecap="round"/>
  <path d="M24 30c-3.5-.5-5-2.5-4.5-4.5" stroke="#4f7f62" stroke-width="1.2" stroke-linecap="round"/>
  <path d="M24 30c3.5 0 5.5-2 5-4" stroke="#4f7f62" stroke-width="1.2" stroke-linecap="round"/>
</svg>
