<svg xmlns="http://www.w3.org/2000/svg" viewBox="0 0 48 48" fill="none" aria-hidden="true">
  <path d="M11 33h26" stroke="#3a443f" stroke-width="1.5" stroke-linecap="round"/>
  <rect x="12" y="15" width="24" height="18" rx="1" stroke="#3a443f" stroke-width="1.5"/>
  <path d="M24 15v18" stroke="#3a443f" stroke-width="1.5"/>
  <circle cx="31" cy="21" r="3" stroke="#3a443f" stroke-width="1.3"/>
  <path d="M31 17v1.2M31 23.8V25M27.2 21h1.2M33.6 21h1.2M28.1 18.1l.8.8M33.1 23.1l.8.8M28.1 23.9l.8-.8M33.1 18.9l.8-.8" stroke="#3a443f" stroke-width="1.2" stroke-linecap="round"/>
  <path d="M15 33v-3" stroke="#3a443f" stroke-width="1.5" stroke-linecap="round"/>
  <path d="M21 33v-3" stroke="#3a443f" stroke-width="1.5" stroke-linecap="round"/>
  <path d="M18 30V26" stroke="#4f7f62" stroke-width="1.2" stroke-linecap="round"/>
  <path d="M18 26c-2.5-2-3.5-4-2.5-5.5" stroke="#4f7f62" stroke-width="1.2" stroke-linecap="round"/>
  <path d="M18 26c2.5-2 3.5-4 2.5-5.5" stroke="#4f7f62" stroke-width="1.2" stroke-linecap="round"/>
  <path d="M18 28.5c-1.5 0-2.3-1-1.8-2" stroke="#4f7f62" stroke-width="1.2" stroke-linecap="round"/>
</svg>
